<svg width="121" height="23" viewBox="0 0 121 23" fill="none" xmlns="http://www.w3.org/2000/svg">
    <path d="M117.488 22.3223V0.910278H121V22.3223H117.488Z" fill="black"/>
    <path d="M96.1859 14.4969V0.910278H99.6981V14.5585C99.6981 17.8858 101.577 19.4571 104.535 19.4571C107.523 19.4571 109.403 17.8858 109.403 14.5585V0.910278H112.915V14.4969C112.915 19.95 108.971 22.5379 104.504 22.5379C100.006 22.5379 96.1859 19.95 96.1859 14.4969Z" fill="black"/>
    <path d="M87.9049 13.3879V22.3224H84.3927V5.34686H87.9049V7.81155C88.8908 6.11707 90.5852 5.06958 92.9883 5.06958V8.705H92.0949C89.5069 8.705 87.9049 9.7833 87.9049 13.3879Z" fill="black"/>
    <path d="M72.5255 8.02721C70.1533 8.02721 68.2431 9.62925 67.8734 12.3096H77.2701C77.2084 9.69087 75.1443 8.02721 72.5255 8.02721ZM80.4742 17.2698C79.5191 20.2274 76.8387 22.5997 72.6796 22.5997C67.8118 22.5997 64.2072 19.1491 64.2072 13.8192C64.2072 8.48934 67.6578 5.06958 72.6796 5.06958C77.5165 5.06958 80.9363 8.42772 80.9363 13.4187C80.9363 14.0041 80.9055 14.5586 80.8131 15.144H67.8426C68.0891 17.9476 70.0917 19.6421 72.6796 19.6421C74.8362 19.6421 76.0377 18.5946 76.6847 17.2698H80.4742Z" fill="black"/>
    <path d="M54.4695 17.6086V8.21196H52.4669V5.34676H54.4695V1.12598H58.0125V5.34676H62.1408V8.21196H58.0125V17.6086C58.0125 18.8717 58.5054 19.3955 59.9842 19.3955H62.1408V22.3223H59.368C56.3488 22.3223 54.4695 21.0591 54.4695 17.6086Z" fill="black"/>
    <path d="M50.1199 17.5779C50.1199 20.4431 47.6244 22.5997 43.6193 22.5997C39.5526 22.5997 36.6874 20.1966 36.5333 17.1157H40.1687C40.292 18.5021 41.6167 19.6421 43.5577 19.6421C45.5911 19.6421 46.6694 18.7794 46.6694 17.6087C46.6694 14.2814 36.8106 16.1915 36.8106 9.96815C36.8106 7.25699 39.3369 5.06958 43.342 5.06958C47.1931 5.06958 49.7194 7.13376 49.9043 10.5227H46.3921C46.2688 9.04389 45.1289 8.02721 43.2188 8.02721C41.3395 8.02721 40.3536 8.79742 40.3536 9.93734C40.3536 13.3571 49.9351 11.447 50.1199 17.5779Z" fill="black"/>
    <path d="M15.4069 13.7576C15.4069 8.52014 18.9499 5.06958 23.4171 5.06958C26.2823 5.06958 28.2541 6.42516 29.3015 7.81155V5.34686H32.8445V22.3224H29.3015V19.7961C28.2232 21.2441 26.1899 22.5997 23.3555 22.5997C18.9499 22.5997 15.4069 18.9951 15.4069 13.7576ZM29.3015 13.8192C29.3015 10.1838 26.806 8.11963 24.1565 8.11963C21.5378 8.11963 19.0115 10.0914 19.0115 13.7576C19.0115 17.4238 21.5378 19.5496 24.1565 19.5496C26.806 19.5496 29.3015 17.4854 29.3015 13.8192Z" fill="black"/>
    <path d="M0.721985 22.3223V0.910278H13.3227V3.77548H4.23417V10.0912H11.3201V12.9564H4.23417V22.3223H0.721985Z" fill="black"/>
    </svg>
    